<svg width="19" height="25" viewBox="0 0 19 25" fill="none" xmlns="http://www.w3.org/2000/svg">
<path d="M9.82426 1.102C9.2889 1.65351 8.84448 1.96624 7.94324 3.69473C7.04201 5.42321 7.49262 7.1517 7.94324 8.01594C8.33536 8.76798 9.30338 9.5678 9.70339 10.409C10.1139 11.2503 10.2694 12.1556 10.469 12.5521C10.8901 14.2451 10.1048 15.2651 8.74682 15.2651C8.08364 15.2651 8.02176 15.1601 7.84375 14.9298C7.64374 14.6038 7.51089 14.1189 7.6688 13.0569C8.0622 10.411 7.30368 9.10954 6.20891 8.01594C5.14572 6.95388 4.3383 6.24836 4.3383 7.58381C4.3383 8.98237 4.10909 10.5963 2.6143 13.0569C1.56164 14.7919 0.917715 16.3598 0.811879 17.5225C0.654508 19.251 1.82828 21.059 2.86956 22.1001C4.02116 23.2515 4.70407 24.2463 6.88981 24.9261C8.00563 25.2731 8.99521 24.3349 8.60572 23.4411C8.52076 22.7892 8.74682 22.3822 9.34252 22C9.93823 21.6178 9.99051 21.5574 11.1761 22.0741C11.5111 22.708 11.5747 23.0255 11.3623 23.5722C11.1217 24.4365 11.9385 24.8792 12.528 24.8687C13.4648 24.8581 15.0697 23.7701 16.1329 22.708C16.8487 21.9825 17.4722 21.1038 17.9354 20.1153C18.5354 18.8535 18.8471 17.5186 18.8366 15.7941C18.8261 13.9329 18.1795 12.8715 17.4848 11.4729C16.8953 10.2847 15.9515 8.87622 14.3304 7.15169C13.4292 5.79011 12.949 5.07323 12.528 4.12685C12.2016 3.39077 11.8129 1.20411 11.8129 0.468031C11.8129 -0.604544 10.498 0.407982 9.82426 1.102ZM11.0165 2.52038C11.0586 2.89893 10.9112 2.95151 10.5743 2.69914C10.3743 2.55192 10.827 3.07297 11.0165 2.86266C11.2691 2.57874 10.9744 2.11028 11.0165 2.52038ZM10.8691 4.27645C11.0691 5.15975 11.2024 6.34196 11.8129 7.15165C12.0656 7.47762 13.1076 9.10303 13.8787 9.90229C16.1765 12.9218 17.0536 13.5405 17.0852 16.5269C16.9057 18.1749 16.85 18.4919 16.1658 19.8168C15.6184 20.8684 15.6833 20.9425 14.7811 21.8438C14.3616 22.2628 13.8798 22.708 12.7008 23.5723C12.6798 23.8772 13.6071 23.1848 12.7008 23.5723C12.7219 23.2778 12.6903 22.3104 12.6271 22.1001C12.4587 21.5217 12.0044 20.8208 11.3623 20.5474C9.53566 20.14 8.80024 20.1305 7.6688 21.8438L7.11118 23.5722L6.14077 22.708C5.5234 22.3295 4.88956 21.5579 4.26849 20.9796C2.91664 19.6832 2.61439 18.8189 2.6143 17.5225C2.67746 16.3764 3.2053 15.6857 4.26849 13.9191C5.23954 11.905 5.23954 11.905 5.50429 11.0408C5.56745 10.6307 5.47271 8.96569 5.50429 8.96569C5.54639 8.96569 6.12005 10.3852 6.20891 10.6617C6.46957 11.4729 6.33738 11.9085 5.9549 13.4924C5.77595 14.144 5.9128 14.7195 5.9549 14.9298C6.04964 15.4451 6.57432 15.833 7.11118 16.2115C7.50066 16.4849 7.93202 16.6307 8.60572 16.6622C9.28995 16.7043 9.95324 16.6879 10.469 16.4355C11.1428 16.099 11.8504 15.708 12.082 14.9298C12.4294 13.7521 12.5977 11.4453 11.1217 9.42901C9.47229 7.17571 9.47662 7.15169 9.29509 6.28745C9.2023 5.84567 9.10922 5.85528 9.36702 4.7258C9.55649 4.33673 10.0269 3.68759 10.2164 3.41419L10.5533 2.90945L10.627 3.22491C10.6691 3.40368 10.7743 3.86635 10.8691 4.27645ZM5.9549 9.31225C6.14438 9.51204 6.30025 9.27128 6.17393 9.27128C6.07919 9.27128 5.57797 8.36388 5.50429 8.44801C5.31481 8.66883 5.50429 10.165 5.50429 9.74437C5.50429 9.31324 5.60752 8.94421 5.9549 9.31225ZM8.14253 23.8562C8.19516 24.0454 8.16357 24.098 8.0162 24.098C7.91093 24.098 7.75301 24.056 7.6688 23.9929C7.54248 23.9193 8.03956 24.6258 8.20799 24.4365C8.41852 24.2051 8.02673 23.4881 8.14253 23.8562ZM12.5956 24.0034C12.5219 24.056 12.3534 24.098 12.2271 24.098C12.0482 24.098 12.006 24.056 12.0587 23.9087C12.206 23.4881 11.8481 23.9939 12.0587 24.2463C12.206 24.4251 12.7008 23.9403 12.5956 24.0034Z" fill="#00F5B0" fill-opacity="0.4"/>
<path d="M11.7074 23.7063L11.6892 23.6992L11.6917 23.6639L11.7037 23.6673M11.7074 23.7063C11.7059 23.693 11.7047 23.68 11.7037 23.6673M11.7074 23.7063C11.7103 23.7325 11.7143 23.7596 11.7196 23.7875M11.7074 23.7063L12.032 23.8323L12.0778 23.8501L12.1971 23.8965M11.7037 23.6673L12.0652 23.7679L12.0947 23.7761L12.1545 23.7927M11.7037 23.6673C11.7015 23.6384 11.7006 23.6108 11.7005 23.5847M11.6968 23.5929L11.7032 23.5034C11.7015 23.5284 11.7004 23.5556 11.7005 23.5847M11.6968 23.5929L12.8303 23.6102M11.6968 23.5929C11.698 23.5901 11.6993 23.5874 11.7005 23.5847M11.6968 23.5929L11.6288 24.544M11.7005 23.5847C11.712 23.5596 11.7226 23.5393 11.7307 23.5245C11.7341 23.5182 11.7376 23.512 11.7411 23.506C11.7415 23.5052 11.7419 23.5045 11.7424 23.5037C11.79 23.4214 11.8374 23.368 11.8417 23.3632L11.8419 23.3629C11.8478 23.3561 11.853 23.3504 11.8573 23.3457C11.8745 23.3374 11.9011 23.3262 11.9364 23.3158C11.9637 23.3078 12.0155 23.2943 12.0856 23.2887C12.0953 23.2879 12.1053 23.2873 12.1156 23.2869M12.1156 23.2869C12.1184 23.2716 12.1215 23.2571 12.1247 23.2435C12.1261 23.2373 12.1276 23.2312 12.1291 23.2252C12.1403 23.1812 12.1537 23.1415 12.1676 23.1065C12.1774 23.1031 12.1831 23.1017 12.1843 23.1013L12.1843 23.1013C12.187 23.1007 12.1888 23.1003 12.1916 23.0999C12.1936 23.0996 12.2055 23.098 12.2271 23.098C12.2096 23.098 12.2573 23.0959 12.3334 23.1126C12.3433 23.1148 12.3559 23.1178 12.3707 23.1219C12.3996 23.1298 12.4371 23.1418 12.4799 23.16M12.1156 23.2869C12.1315 23.2862 12.1483 23.2859 12.1657 23.2863C12.1853 23.2866 12.2058 23.2877 12.2271 23.2897C12.2416 23.291 12.2565 23.2927 12.2718 23.295C12.3329 23.3038 12.3962 23.3198 12.4591 23.3438C12.4635 23.3155 12.4674 23.287 12.4707 23.2583C12.4745 23.2258 12.4776 23.193 12.4799 23.16M12.1156 23.2869C12.1135 23.2983 12.1115 23.3102 12.1097 23.3224C12.1008 23.3826 12.0961 23.4526 12.1009 23.5294C12.101 23.5299 12.101 23.5303 12.101 23.5308C12.1063 23.6118 12.122 23.7002 12.1545 23.7927M12.4799 23.16C12.4821 23.129 12.4836 23.0977 12.4844 23.0661L12.5358 23.1862M12.4799 23.16C12.4977 23.1676 12.5164 23.1763 12.5358 23.1862M12.5358 23.1862C12.5895 23.2137 12.6484 23.2507 12.7073 23.3004C12.7074 23.3698 12.7067 23.4327 12.705 23.4857C12.6853 23.4696 12.6651 23.4546 12.6446 23.4406L12.5358 23.1862ZM12.1545 23.7927L12.2271 23.813L12.3127 23.8368M12.1545 23.7927C12.1571 23.8002 12.1598 23.8077 12.1627 23.8153C12.1734 23.8436 12.1849 23.8706 12.1971 23.8965M12.3127 23.8368C12.3035 23.8081 12.2908 23.7946 12.2908 23.7945C12.2908 23.7945 12.2916 23.7952 12.2933 23.7968C12.3004 23.803 12.3143 23.813 12.3354 23.8239C12.3302 23.8385 12.325 23.853 12.3197 23.8675M12.3127 23.8368C12.3127 23.8369 12.3127 23.8369 12.3128 23.837C12.3174 23.8514 12.3188 23.8629 12.3191 23.8692M12.3127 23.8368L12.3257 23.8404C12.3221 23.8534 12.3204 23.8624 12.3197 23.8675M12.3197 23.8675C12.3192 23.8711 12.3191 23.8728 12.3191 23.8728C12.3191 23.8729 12.3191 23.8724 12.3191 23.8716C12.3191 23.871 12.3191 23.8701 12.3191 23.8692M12.3197 23.8675C12.3195 23.8681 12.3193 23.8686 12.3191 23.8692M12.3191 23.8692C12.3111 23.891 12.3029 23.9127 12.2945 23.9343L12.2271 23.9081L12.1971 23.8965M12.1971 23.8965C12.2067 23.9166 12.2167 23.936 12.2271 23.9547C12.2302 23.9602 12.2332 23.9656 12.2364 23.971C12.2367 23.9715 12.237 23.9721 12.2373 23.9726C12.254 24.0012 12.2716 24.0281 12.29 24.0534C12.2903 24.0538 12.2907 24.0543 12.291 24.0548C12.3003 24.0675 12.3098 24.0798 12.3194 24.0917C12.346 24.1246 12.3739 24.1545 12.4024 24.1816C12.4399 24.2172 12.4786 24.248 12.5174 24.2746C12.5187 24.2755 12.52 24.2764 12.5213 24.2773C12.6317 24.3524 12.742 24.3942 12.8249 24.4172M12.8249 24.4172C12.8288 24.4128 12.8325 24.4085 12.8359 24.4044M12.8249 24.4172C12.8325 24.4193 12.84 24.4213 12.8471 24.4231L12.8359 24.4044M12.8249 24.4172C12.7867 24.4606 12.7265 24.5206 12.6435 24.577C12.6218 24.5918 12.5919 24.6108 12.5545 24.6308M12.8359 24.4044L12.6698 24.1272L12.6665 24.1217L12.6015 24.0133L12.5956 24.0034L12.6021 24.0125L12.6845 24.128L12.6888 24.134L12.8602 24.3743M12.8359 24.4044C12.846 24.3925 12.8541 24.3823 12.8602 24.3743M12.8602 24.3743C12.8644 24.3689 12.8677 24.3644 12.8701 24.3612C12.9148 24.3012 12.9394 24.2519 12.9504 24.2276C12.9513 24.2255 12.9521 24.2237 12.9528 24.222C12.9539 24.2196 12.9548 24.2175 12.9555 24.2158C12.9588 24.208 12.9621 24.1997 12.9653 24.1909C12.9782 24.1548 12.989 24.1096 12.9903 24.0495C12.9908 24.0277 12.99 23.9969 12.985 23.9599M12.8602 24.3743L12.9041 24.4358L12.5256 24.7347L12.5265 24.7344L12.7212 24.6511C12.6729 24.6489 12.6164 24.6432 12.5545 24.6308M12.985 23.9599L12.8591 23.7882C12.8809 23.7803 12.9035 23.7719 12.9269 23.7628M12.985 23.9599C12.9776 23.905 12.9613 23.8364 12.9269 23.7628M12.985 23.9599L13.0371 24.0311C13.0338 24.1379 13.011 24.2141 13.003 24.2377M12.9269 23.7628C12.9037 23.7133 12.8725 23.6616 12.8303 23.6102M12.9269 23.7628C12.9492 23.7541 12.9723 23.7449 12.9961 23.735M12.8303 23.6102C12.8296 23.6094 12.829 23.6086 12.8283 23.6079L12.8303 23.6102ZM12.9961 23.735L13.7539 23.3341C13.7382 23.3439 13.7226 23.3536 13.7071 23.3631M12.9961 23.735C12.9814 23.6875 12.9621 23.6385 12.9369 23.5891L12.8039 23.5796M12.9961 23.735L12.8556 23.4583M13.003 24.2377C13.0211 24.186 13.0409 24.1247 13.0573 24.0586L13.292 24.3788C13.3993 24.3001 13.5012 24.2247 13.5981 24.1522C13.6071 24.0942 13.612 24.0302 13.6094 23.9617C13.606 23.869 13.5876 23.7531 13.5405 23.6323L13.6983 23.6436C13.7037 23.5674 13.7065 23.4705 13.7071 23.3631M13.003 24.2377C13.0028 24.2383 13.0026 24.2388 13.0024 24.2394L13.0024 24.2394M13.003 24.2377C13.0028 24.2383 13.0026 24.2389 13.0024 24.2394M13.7071 23.3631C13.6972 23.3692 13.6873 23.3752 13.6775 23.3811M13.7071 23.3631C13.7082 23.1923 13.7039 22.995 13.6967 22.8124C13.628 22.8677 13.5556 22.9251 13.4789 22.9851C13.533 23.0491 13.5794 23.1212 13.6159 23.2005C13.6449 23.2637 13.6646 23.3246 13.6775 23.3811M13.6775 23.3811C13.7021 23.4884 13.7027 23.5797 13.6985 23.6411L13.5397 23.6302C13.5225 23.5866 13.5017 23.5424 13.4764 23.4984M13.6775 23.3811C13.6079 23.4234 13.5408 23.4624 13.4764 23.4984M13.4764 23.4984C13.4022 23.54 13.3314 23.5774 13.2644 23.6112L13.0823 23.5986C13.0755 23.5562 13.0651 23.5081 13.049 23.4565C13.0396 23.4262 13.0262 23.3882 13.0072 23.3454C13.0762 23.2938 13.1425 23.2438 13.2062 23.1953C13.2269 23.2108 13.2475 23.2274 13.268 23.2453C13.3583 23.3243 13.4261 23.4109 13.4764 23.4984ZM12.4651 22.7194C12.4706 22.7162 12.4754 22.7137 12.4799 22.7114L12.4801 22.7113C12.4876 22.7075 12.5274 22.6874 12.5963 22.6716C12.6171 22.6668 12.6484 22.6607 12.6883 22.6566C12.6855 22.6076 12.6825 22.5597 12.6793 22.5137C12.6756 22.5149 12.6719 22.516 12.6683 22.5171C12.5983 22.5384 12.5235 22.5653 12.4446 22.5964M12.4651 22.7194C12.4651 22.7195 12.4651 22.7195 12.4652 22.7196C12.4701 22.7552 12.474 22.7906 12.4771 22.8256M12.4651 22.7194C12.4567 22.7244 12.4467 22.7309 12.4345 22.74C12.4243 22.7476 12.4034 22.7639 12.3766 22.7897C12.4103 22.7997 12.4438 22.8116 12.4771 22.8256M12.4651 22.7194C12.4594 22.678 12.4525 22.637 12.4446 22.5964M12.4771 22.8256C12.5542 22.8579 12.6297 22.901 12.7012 22.9561C12.7017 22.9715 12.7022 22.9869 12.7026 23.0022C12.6746 22.9995 12.6495 22.9983 12.6279 22.9979C12.5771 22.9969 12.5292 23 12.4852 23.0055C12.485 22.9464 12.4824 22.8865 12.4771 22.8256ZM12.4446 22.5964C12.4002 22.6139 12.3545 22.6327 12.3077 22.6528L12.3648 22.7862C12.2873 22.7641 12.2093 22.752 12.1331 22.7485M12.4446 22.5964C12.4401 22.5735 12.4353 22.5508 12.4302 22.5282C12.3368 22.5982 12.2379 22.6716 12.1331 22.7485M12.1331 22.7485C12.1253 22.7543 12.1175 22.76 12.1096 22.7657L11.7352 23.0402L11.7036 23.497C11.7095 23.4072 11.7093 23.1441 11.6965 22.8477C11.6962 22.8408 11.6959 22.8338 11.6956 22.8269C11.7656 22.7974 11.851 22.7706 11.9502 22.7569C12.0091 22.7487 12.0705 22.7457 12.1331 22.7485ZM11.6288 24.544L11.6483 24.2715C11.6694 24.3464 11.701 24.4254 11.7466 24.5036M11.6288 24.544C11.6399 24.5538 11.6511 24.5634 11.6626 24.5728L11.7466 24.5036M11.6288 24.544L11.7478 24.5057M11.7466 24.5036L11.9813 24.3101M11.7466 24.5036C11.747 24.5043 11.7474 24.505 11.7478 24.5057M11.9813 24.3101C11.9082 24.2308 11.8461 24.139 11.7988 24.036C11.7595 23.9507 11.7349 23.8676 11.7201 23.7901M11.9813 24.3101C11.9814 24.3102 11.9816 24.3104 11.9817 24.3105M11.9813 24.3101L12.0587 24.2463L11.9817 24.3105M11.7201 23.7901L11.6836 23.7773L11.6838 23.7747L11.7196 23.7875M11.7201 23.7901C11.7199 23.7892 11.7197 23.7884 11.7196 23.7875M11.7201 23.7901L12.0116 23.8922L12.0587 23.9087L12.0117 23.8919L11.7196 23.7875M11.9817 24.3105C12.054 24.3889 12.137 24.4549 12.2271 24.5072C12.2436 24.5168 12.2604 24.526 12.2774 24.5346C12.3635 24.5785 12.4471 24.6066 12.5236 24.6242C12.5241 24.6243 12.5247 24.6244 12.5252 24.6245C12.5351 24.6268 12.5449 24.6289 12.5545 24.6308M11.9817 24.3105L11.7478 24.5057M11.7478 24.5057L11.665 24.5748M11.7478 24.5057C11.7941 24.5847 11.855 24.6629 11.934 24.7353M11.7478 24.5057L11.665 24.5748M11.665 24.5748C11.7417 24.6372 11.8272 24.6898 11.917 24.7325C11.9227 24.7335 11.9284 24.7344 11.934 24.7353M11.665 24.5748L11.9455 24.7456C11.9416 24.7422 11.9378 24.7387 11.934 24.7353M11.934 24.7353C12.0334 24.7508 12.1317 24.7508 12.2238 24.738C12.2249 24.7379 12.226 24.7377 12.2271 24.7376C12.3489 24.7204 12.4488 24.6832 12.524 24.6464C12.5245 24.6462 12.525 24.6459 12.5255 24.6457C12.5356 24.6407 12.5453 24.6357 12.5545 24.6308M12.8556 23.4583C12.8876 23.5014 12.9143 23.5451 12.9366 23.5885L12.8036 23.5793M12.8556 23.4583C12.8232 23.4822 12.7902 23.5066 12.7567 23.5312M12.8556 23.4583L12.7567 23.5312M12.8036 23.5793C12.8037 23.5794 12.8038 23.5795 12.8039 23.5796M12.8036 23.5793C12.7884 23.5625 12.7728 23.5465 12.7567 23.5312M12.8036 23.5793L12.7008 23.5723M12.8039 23.5796L12.7008 23.5723M12.8039 23.5796C12.8116 23.5881 12.8191 23.5968 12.8266 23.6057L12.7008 23.5723M12.7008 23.5723L12.7567 23.5312M13.0024 24.2394C13.0024 24.2395 13.0024 24.2396 13.0023 24.2397L13.0024 24.2394ZM5.35028 7.3967C5.35019 7.39706 5.3501 7.3975 5.34999 7.398L5.35028 7.3967ZM10.8124 0.453974C10.8124 0.454039 10.8124 0.455814 10.8128 0.459141C10.8127 0.455576 10.8125 0.453907 10.8124 0.453974ZM13.398 7.55482C12.9107 6.81885 12.5338 6.2496 12.2156 5.70272C12.3234 6.05401 12.45 6.33433 12.6087 6.54599C12.6881 6.64956 12.8374 6.86555 13.0129 7.11962C13.1546 7.32478 13.3135 7.55478 13.4667 7.77047C13.8552 8.31755 14.2704 8.86803 14.5984 9.20796L14.639 9.25011L14.6745 9.29672C14.9756 9.6924 15.2612 10.0571 15.5287 10.3986C15.8269 10.7795 16.1026 11.1314 16.3518 11.4652C15.8006 10.4681 14.9575 9.27874 13.6018 7.83661L13.5435 7.7746L13.4966 7.70364C13.4632 7.65327 13.4304 7.60368 13.398 7.55482ZM11.3427 23.6528C11.3423 23.6543 11.342 23.6559 11.3417 23.6575L11.6388 23.7616C11.639 23.7607 11.6393 23.7598 11.6395 23.7589L11.3427 23.6528ZM11.66 23.6879L11.3623 23.5722L11.6704 23.658C11.6686 23.6629 11.6668 23.6679 11.665 23.673C11.6635 23.6775 11.6618 23.6825 11.66 23.6879ZM11.6597 22.3552C11.6587 22.3488 11.658 22.3444 11.6575 22.3418C11.6587 22.3475 11.6617 22.3609 11.667 22.3797C11.6678 22.3823 11.6686 22.385 11.6694 22.3877L11.6694 22.3877L11.667 22.3797C11.6646 22.3715 11.6622 22.3634 11.6597 22.3552ZM12.46 23.0089L12.3693 22.7968C12.3464 22.8194 12.2963 22.8717 12.246 22.9517C12.2422 22.9577 12.2384 22.9639 12.2346 22.9703C12.2173 22.9994 12.1938 23.0422 12.1713 23.0973C12.1813 23.0925 12.1919 23.0877 12.2031 23.0828C12.2038 23.0825 12.2047 23.0821 12.2059 23.0816C12.2184 23.076 12.256 23.0592 12.3123 23.0422C12.3527 23.0299 12.4027 23.0175 12.46 23.0089ZM13.0824 23.5995C13.0881 23.6352 13.0912 23.6668 13.093 23.693C13.1464 23.6689 13.2027 23.6421 13.262 23.6124L13.0824 23.5995ZM11.8337 23.3587C11.8337 23.3588 11.836 23.3575 11.8408 23.3543C11.8361 23.3569 11.8337 23.3586 11.8337 23.3587Z" stroke="#00F5B0" stroke-opacity="0.4" stroke-width="2"/>
</svg>
