<?xml version="1.0" standalone="no"?>
<!DOCTYPE svg PUBLIC "-//W3C//DTD SVG 20010904//EN"
 "http://www.w3.org/TR/2001/REC-SVG-20010904/DTD/svg10.dtd">
<svg version="1.0" xmlns="http://www.w3.org/2000/svg"
 width="500.000000pt" height="501.000000pt" viewBox="0 0 500.000000 501.000000"
 preserveAspectRatio="xMidYMid meet">

<g transform="translate(0.000000,501.000000) scale(0.100000,-0.100000)"
fill="#000000" stroke="none">
<path d="M2478 4993 c34 -2 88 -2 120 0 31 2 3 3 -63 3 -66 0 -92 -1 -57 -3z"/>
<path d="M2243 4983 c9 -2 23 -2 30 0 6 3 -1 5 -18 5 -16 0 -22 -2 -12 -5z"/>
<path d="M2723 4983 c9 -2 23 -2 30 0 6 3 -1 5 -18 5 -16 0 -22 -2 -12 -5z"/>
<path d="M2798 4973 c6 -2 18 -2 25 0 6 3 1 5 -13 5 -14 0 -19 -2 -12 -5z"/>
<path d="M2042 4958 c-24 -5 -42 -11 -40 -14 3 -2 34 2 69 10 35 8 53 14 39
14 -14 0 -45 -5 -68 -10z"/>
<path d="M2883 4963 c9 -2 23 -2 30 0 6 3 -1 5 -18 5 -16 0 -22 -2 -12 -5z"/>
<path d="M2938 4953 c6 -2 18 -2 25 0 6 3 1 5 -13 5 -14 0 -19 -2 -12 -5z"/>
<path d="M1905 4925 c-54 -17 -33 -18 30 -1 28 8 41 14 30 14 -11 0 -38 -5
-60 -13z"/>
<path d="M3114 4914 c49 -13 91 -23 93 -20 5 5 -148 46 -168 45 -8 0 26 -11
75 -25z"/>
<path d="M1838 4903 c7 -3 16 -2 19 1 4 3 -2 6 -13 5 -11 0 -14 -3 -6 -6z"/>
<path d="M1690 4863 c-41 -15 -70 -28 -65 -29 6 -2 46 10 90 26 44 16 73 29
65 29 -8 0 -49 -12 -90 -26z"/>
<path d="M3260 4870 c8 -5 22 -9 30 -9 10 0 8 3 -5 9 -27 12 -43 12 -25 0z"/>
<path d="M3320 4852 c8 -5 26 -13 40 -16 17 -5 20 -4 10 2 -8 5 -26 13 -40 16
-17 5 -20 4 -10 -2z"/>
<path d="M1525 4796 c-66 -32 -53 -33 16 -2 30 14 50 25 44 25 -5 1 -32 -10
-60 -23z"/>
<path d="M2325 4809 c-723 -55 -1413 -487 -1805 -1129 -267 -438 -379 -993
-304 -1500 77 -519 319 -978 715 -1354 276 -263 670 -480 1023 -566 211 -51
312 -63 546 -63 202 -1 240 2 370 25 507 93 914 307 1274 673 431 436 666
1009 666 1622 0 485 -157 952 -454 1346 -417 556 -1024 892 -1710 947 -142 11
-161 11 -321 -1z m745 -266 c556 -156 1079 -595 1344 -1129 94 -191 159 -388
191 -589 20 -119 30 -362 21 -506 l-8 -116 -51 -22 c-29 -13 -162 -69 -297
-126 -135 -56 -301 -128 -370 -159 -140 -63 -160 -67 -160 -32 0 25 71 71 465
306 156 94 185 116 185 141 0 23 -37 49 -59 41 -18 -6 -126 -70 -450 -263
-124 -74 -228 -135 -232 -137 -4 -2 -12 12 -17 30 -5 18 -42 136 -81 262 l-71
230 27 29 c16 16 156 143 313 282 343 303 350 310 350 326 0 19 -31 49 -51 49
-21 0 -386 -310 -561 -478 -56 -53 -83 -73 -99 -70 -29 4 -43 29 -36 59 3 13
132 154 287 312 154 158 280 293 280 299 0 20 -32 48 -55 48 -15 0 -99 -78
-279 -260 -162 -164 -265 -260 -277 -260 -16 0 -39 33 -39 55 0 2 66 84 147
182 81 98 167 203 192 234 26 31 108 131 184 223 75 91 137 175 137 185 0 10
-6 23 -12 28 -29 23 -47 21 -74 -5 -24 -24 -274 -320 -507 -601 -72 -87 -93
-106 -115 -106 -45 0 -39 34 23 142 32 54 108 186 170 293 62 107 145 251 186
320 40 69 79 137 88 152 14 24 14 28 -4 48 -12 13 -28 20 -44 18 -26 -3 -93
-107 -364 -571 -50 -86 -93 -153 -95 -148 -3 10 41 180 104 404 19 65 34 137
34 160 0 61 -26 158 -65 251 -35 81 -36 82 -114 129 -44 26 -84 47 -89 47 -6
0 -15 14 -21 31 -18 51 -96 153 -167 217 -108 98 -82 106 136 45z m-482 -18
c82 -20 166 -63 222 -115 25 -23 38 -39 29 -37 -9 3 -65 13 -125 22 -130 21
-358 16 -497 -9 -92 -17 -220 -57 -244 -77 -7 -7 -16 -10 -18 -7 -11 11 143
144 195 170 126 63 304 84 438 53z m141 -290 c86 -13 261 -51 267 -58 5 -5 36
-248 33 -251 -4 -4 -194 28 -424 71 -142 26 -304 64 -339 78 -62 26 61 -81
149 -129 173 -96 485 -177 743 -193 50 -3 92 -9 92 -13 0 -35 -302 -38 -490
-5 -27 5 -17 -3 49 -39 107 -57 144 -92 136 -126 -4 -14 -8 -26 -10 -28 -3 -3
-137 16 -370 53 -232 37 -205 43 -227 -45 -9 -41 -42 -176 -72 -300 -30 -124
-56 -236 -58 -250 -3 -24 -2 -24 202 -57 113 -18 217 -32 233 -33 30 0 31 -5
16 -70 -26 -116 -28 -120 -58 -120 -36 0 -254 34 -350 54 -70 16 -207 59 -218
70 -7 6 -1 29 116 504 l103 413 -64 67 c-35 37 -78 85 -95 106 -23 28 -34 35
-37 25 -7 -19 -108 -483 -152 -697 -29 -144 -33 -179 -24 -205 16 -48 119
-217 132 -217 6 0 37 -25 70 -55 153 -142 385 -225 635 -229 122 -1 123 -7 7
-36 -87 -23 -149 -25 -240 -9 -87 15 -110 9 -57 -16 23 -11 43 -24 43 -29 0
-8 -89 -2 -150 10 l-25 5 25 -15 c56 -35 139 -58 225 -65 l90 -7 -72 -17 c-80
-19 -195 -22 -262 -6 -24 5 -45 8 -48 6 -2 -2 27 -20 64 -40 73 -39 67 -43
-37 -27 -188 30 -375 199 -469 424 -41 100 -132 420 -138 486 -5 55 -4 61 134
645 14 61 34 129 45 152 50 108 192 192 376 223 85 14 388 11 501 -5z m-953
-137 c-3 -13 -13 -51 -22 -85 -17 -66 -27 -76 -44 -44 -22 41 -2 131 32 144
30 12 40 7 34 -15z m-348 -40 c28 -28 7 -78 -33 -78 -42 0 -59 44 -29 74 18
19 45 21 62 4z m-152 -195 c86 -109 105 -139 97 -152 -17 -27 -49 -25 -71 6
-11 15 -59 75 -106 133 -47 58 -86 113 -86 122 0 20 28 38 46 31 7 -3 61 -66
120 -140z m-167 -163 c86 -91 112 -125 109 -142 -2 -14 -11 -24 -24 -26 -15
-2 -50 29 -138 122 -104 111 -116 127 -106 146 6 11 19 20 29 20 10 0 66 -51
130 -120z m-206 -137 c133 -121 227 -213 227 -222 0 -13 -31 -43 -41 -39 -24
8 -289 264 -289 279 0 14 22 37 38 39 1 0 30 -26 65 -57z m1553 -290 c-21 -76
-40 -147 -43 -157 -5 -19 -7 -19 -25 4 -16 19 -18 33 -13 64 6 44 48 197 65
242 l11 28 21 -22 21 -21 -37 -138z m269 112 c279 -37 351 -47 362 -50 8 -3 1
-44 -24 -142 -20 -76 -39 -142 -44 -147 -4 -5 -61 -1 -131 9 -68 9 -185 25
-261 35 -76 10 -141 20 -144 23 -6 7 33 159 73 285 3 9 13 12 31 8 16 -4 78
-13 138 -21z m-1877 -241 c31 -20 38 -42 20 -60 -13 -14 -22 -12 -79 11 -86
36 -109 52 -109 75 0 35 29 40 89 13 31 -13 66 -31 79 -39z m707 -149 c85
-320 152 -467 279 -614 34 -39 86 -90 116 -112 59 -45 199 -115 249 -125 l31
-6 0 -80 0 -79 28 15 c15 8 88 40 162 72 121 52 142 58 205 58 61 0 78 -4 125
-30 66 -38 107 -86 130 -155 16 -45 36 -69 165 -190 81 -77 151 -139 156 -139
5 0 9 140 9 332 0 182 2 329 4 327 9 -9 67 -352 90 -527 13 -100 26 -185 29
-188 3 -3 14 14 25 38 38 82 153 318 156 318 3 0 -13 -117 -39 -285 -20 -136
-23 -129 38 -99 59 30 268 124 276 124 3 0 -57 -60 -134 -134 -102 -98 -137
-137 -129 -145 6 -7 91 -30 189 -52 99 -22 180 -41 182 -43 2 -2 -72 -11 -164
-20 -93 -10 -177 -23 -187 -28 -18 -10 -11 -20 76 -104 l97 -94 148 0 148 0
-48 -47 -47 -48 -478 -2 c-262 -1 -487 -3 -500 -3 -14 0 -27 -9 -34 -25 -9
-21 -8 -28 7 -45 18 -19 31 -20 439 -20 472 0 436 6 336 -65 l-35 -24 -354 -2
c-194 0 -360 -3 -368 -6 -27 -10 -36 -42 -18 -69 l15 -24 281 0 c180 0 278 -3
274 -10 -3 -5 -33 -25 -66 -45 l-60 -35 -856 0 -855 0 -75 42 -75 43 346 5
c294 4 348 7 356 20 14 22 12 47 -6 64 -14 14 -67 16 -436 16 l-420 0 -49 38
c-26 20 -48 40 -49 45 0 4 213 7 473 7 355 0 476 3 485 12 20 20 14 56 -13 74
-23 15 -76 16 -560 13 l-535 -4 -47 48 -48 47 946 0 946 0 87 90 c47 50 86 95
86 99 0 9 -19 15 -96 26 -35 5 -43 11 -47 32 -4 22 1 28 44 47 27 11 49 26 49
33 0 6 -50 57 -110 112 l-110 101 -37 -25 c-21 -14 -40 -25 -43 -25 -8 0 -44
69 -39 74 2 2 28 20 58 40 l53 36 96 -87 c52 -49 135 -124 183 -168 84 -77 87
-82 88 -125 2 -91 65 -160 145 -160 110 0 179 119 128 220 -20 40 -74 80 -110
80 -27 0 -129 90 -364 320 -101 99 -128 131 -128 152 0 36 -56 107 -105 132
-28 14 -57 20 -95 20 -59 -2 -73 -7 -388 -149 l-172 -77 -60 25 c-76 33 -184
54 -333 63 -109 6 -118 8 -121 28 -47 252 -98 432 -149 530 -32 60 -124 168
-112 131 27 -81 47 -186 53 -278 4 -60 6 -110 4 -112 -2 -1 -23 16 -46 39 -40
39 -152 103 -162 93 -3 -3 9 -27 26 -55 16 -27 39 -76 51 -108 22 -64 52 -195
46 -201 -2 -2 -30 12 -62 31 -64 39 -118 51 -201 44 -73 -6 -88 -22 -39 -42
40 -17 135 -83 135 -94 0 -4 -28 -15 -62 -25 -71 -21 -126 -57 -158 -104 -24
-35 -41 -103 -33 -133 4 -16 9 -14 35 16 44 50 103 81 199 106 75 19 102 20
249 15 150 -6 427 -29 508 -42 l33 -6 -45 -50 c-90 -101 -120 -271 -70 -404
13 -34 -75 74 -93 113 -8 21 -18 66 -22 102 l-6 65 -30 -45 c-28 -42 -30 -52
-30 -137 0 -51 -2 -93 -5 -93 -3 0 -29 21 -58 46 -59 52 -80 87 -97 158 l-11
50 -23 -47 c-19 -40 -23 -60 -19 -121 l3 -74 -27 19 c-38 28 -86 88 -100 127
-13 36 -23 40 -36 15 -19 -36 -22 -90 -8 -141 7 -28 11 -52 9 -52 -2 0 -20 11
-41 24 -58 36 -110 100 -117 143 -10 60 -11 61 -34 13 -26 -56 -26 -103 -1
-158 l19 -43 -37 7 c-198 35 -334 164 -373 352 -23 109 -20 117 283 977 39
110 76 211 83 225 36 69 128 125 377 229 110 46 165 65 169 57 4 -6 19 -56 34
-111z m-850 -165 c15 -17 16 -24 7 -46 -10 -21 -18 -25 -45 -22 -27 2 -33 8
-35 31 -6 53 38 75 73 37z m1975 -909 c37 -36 46 -72 31 -122 -37 -125 -221
-91 -221 40 0 31 7 47 34 75 29 31 39 36 80 36 39 0 53 -5 76 -29z m1623 -63
c6 -8 8 -22 5 -30 -6 -15 -306 -138 -338 -138 -29 0 -37 28 -14 50 20 19 312
141 328 136 5 -1 14 -9 19 -18z m-1923 -103 c24 -8 62 -31 84 -49 74 -62 146
-132 146 -143 0 -6 -8 -21 -19 -34 l-18 -23 -77 65 c-43 35 -91 75 -108 89
l-30 24 -19 -24 c-10 -14 -19 -28 -19 -31 0 -3 43 -45 95 -93 52 -48 95 -93
95 -100 0 -7 -9 -21 -20 -31 -22 -20 -22 -20 -147 92 l-70 62 -23 -24 c-12
-13 -19 -29 -15 -35 4 -7 43 -46 86 -87 44 -42 79 -81 79 -88 0 -6 -9 -20 -20
-30 -19 -17 -21 -16 -75 31 -31 27 -72 62 -91 78 l-34 30 -20 -22 c-11 -12
-20 -25 -20 -31 0 -5 34 -41 76 -79 62 -56 75 -73 70 -90 -16 -49 -59 -37
-143 41 l-43 40 -77 -17 -77 -17 -18 23 c-68 88 -61 261 12 351 44 52 103 84
211 112 110 28 170 31 229 10z m817 -352 c-11 -10 -17 -6 -185 152 -137 127
-163 160 -146 178 3 3 81 -68 172 -158 92 -90 163 -167 159 -172z m-915 -267
c24 -7 62 -19 86 -25 36 -10 43 -16 40 -34 -3 -21 -8 -22 -131 -25 l-129 -3 7
23 c7 24 59 78 75 78 5 0 29 -6 52 -14z m1238 -595 c0 -67 -1 -69 -35 -96 -41
-30 -244 -105 -287 -105 -7 0 -22 20 -34 46 l-21 45 111 54 c61 30 140 70 176
90 36 19 71 35 78 35 8 0 12 -20 12 -69z m-535 -102 c-168 -53 -377 -74 -605
-59 -133 8 -244 27 -415 70 -16 5 220 8 525 8 l555 0 -60 -19z"/>
<path d="M4270 2768 c-25 -18 -76 -55 -115 -83 -38 -28 -131 -96 -205 -150
-74 -54 -169 -123 -210 -154 -41 -30 -81 -61 -87 -70 -35 -41 5 -94 53 -72 13
6 89 59 168 118 79 60 217 162 307 228 218 160 216 158 179 195 -26 26 -37 25
-90 -12z"/>
<path d="M3480 1073 c0 -34 15 -44 61 -41 l44 3 -52 28 c-47 24 -53 25 -53 10z"/>
<path d="M3073 1059 c-18 -12 -33 -23 -33 -25 0 -2 18 -4 40 -4 36 0 40 3 40
25 0 30 -6 31 -47 4z"/>
<path d="M1355 4714 c-55 -30 -104 -60 -110 -66 -5 -5 28 11 75 37 47 25 100
53 118 61 30 13 41 24 25 24 -5 0 -53 -25 -108 -56z"/>
<path d="M3690 4686 c0 -3 9 -10 20 -16 11 -6 20 -8 20 -6 0 3 -9 10 -20 16
-11 6 -20 8 -20 6z"/>
<path d="M1142 4585 c-45 -31 -82 -58 -82 -61 0 -7 12 0 90 54 69 48 87 62 79
62 -2 0 -41 -25 -87 -55z"/>
<path d="M3820 4607 c0 -3 12 -12 26 -22 15 -9 23 -12 20 -6 -7 11 -46 35 -46
28z"/>
<path d="M3880 4567 c0 -3 12 -12 26 -22 15 -9 23 -12 20 -6 -7 11 -46 35 -46
28z"/>
<path d="M3940 4526 c0 -2 14 -14 30 -26 17 -12 30 -19 30 -16 0 2 -13 14 -30
26 -16 12 -30 19 -30 16z"/>
<path d="M1010 4489 l-35 -30 38 26 c33 24 43 35 34 35 -1 0 -18 -14 -37 -31z"/>
<path d="M4020 4467 c0 -3 24 -25 53 -48 28 -24 46 -36 38 -26 -16 20 -91 81
-91 74z"/>
<path d="M874 4378 l-19 -23 23 19 c21 18 27 26 19 26 -2 0 -12 -10 -23 -22z"/>
<path d="M4245 4260 c66 -66 122 -120 125 -120 2 0 -49 54 -115 120 -66 66
-122 120 -125 120 -2 0 49 -54 115 -120z"/>
<path d="M745 4258 l-90 -93 93 90 c50 49 92 91 92 92 0 8 -12 -4 -95 -89z"/>
<path d="M4380 4116 c0 -2 8 -10 18 -17 15 -13 16 -12 3 4 -13 16 -21 21 -21
13z"/>
<path d="M4430 4056 c0 -2 8 -10 18 -17 15 -13 16 -12 3 4 -13 16 -21 21 -21
13z"/>
<path d="M4460 4016 c0 -2 8 -10 18 -17 15 -13 16 -12 3 4 -13 16 -21 21 -21
13z"/>
<path d="M4490 3976 c0 -2 8 -10 18 -17 15 -13 16 -12 3 4 -13 16 -21 21 -21
13z"/>
<path d="M440 3890 c-6 -11 -8 -20 -6 -20 3 0 10 9 16 20 6 11 8 20 6 20 -3 0
-10 -9 -16 -20z"/>
<path d="M4576 3858 c20 -32 39 -58 41 -58 7 0 -27 56 -52 85 -18 20 -14 11
11 -27z"/>
<path d="M4630 3771 c0 -6 4 -13 10 -16 6 -3 7 1 4 9 -7 18 -14 21 -14 7z"/>
<path d="M310 3680 c-11 -22 -18 -40 -15 -40 2 0 14 18 25 40 11 22 18 40 15
40 -2 0 -14 -18 -25 -40z"/>
<path d="M4690 3670 c6 -11 13 -20 16 -20 2 0 0 9 -6 20 -6 11 -13 20 -16 20
-2 0 0 -9 6 -20z"/>
<path d="M4716 3627 c3 -10 9 -15 12 -12 3 3 0 11 -7 18 -10 9 -11 8 -5 -6z"/>
<path d="M270 3609 c-7 -11 -10 -23 -7 -25 2 -2 9 7 15 21 14 30 7 33 -8 4z"/>
<path d="M240 3551 c-15 -30 -32 -77 -24 -68 9 9 44 87 39 87 -2 0 -9 -9 -15
-19z"/>
<path d="M196 3455 c-9 -26 -7 -32 5 -12 6 10 9 21 6 23 -2 3 -7 -2 -11 -11z"/>
<path d="M4800 3445 c0 -5 5 -17 10 -25 5 -8 10 -10 10 -5 0 6 -5 17 -10 25
-5 8 -10 11 -10 5z"/>
<path d="M4911 3114 c0 -11 3 -14 6 -6 3 7 2 16 -1 19 -3 4 -6 -2 -5 -13z"/>
<path d="M4961 2854 c0 -11 3 -14 6 -6 3 7 2 16 -1 19 -3 4 -6 -2 -5 -13z"/>
<path d="M4972 2795 c0 -16 2 -22 5 -12 2 9 2 23 0 30 -3 6 -5 -1 -5 -18z"/>
<path d="M4971 2234 c0 -11 3 -14 6 -6 3 7 2 16 -1 19 -3 4 -6 -2 -5 -13z"/>
<path d="M4961 2164 c0 -11 3 -14 6 -6 3 7 2 16 -1 19 -3 4 -6 -2 -5 -13z"/>
<path d="M4942 2040 c0 -14 2 -19 5 -12 2 6 2 18 0 25 -3 6 -5 1 -5 -13z"/>
<path d="M4931 1984 c0 -11 3 -14 6 -6 3 7 2 16 -1 19 -3 4 -6 -2 -5 -13z"/>
<path d="M4916 1924 c-4 -14 -5 -28 -3 -31 3 -2 8 8 11 23 4 14 5 28 3 31 -3
2 -8 -8 -11 -23z"/>
<path d="M4901 1864 c0 -11 3 -14 6 -6 3 7 2 16 -1 19 -3 4 -6 -2 -5 -13z"/>
<path d="M101 1835 c1 -19 18 -51 18 -35 0 8 -4 22 -9 30 -5 8 -9 11 -9 5z"/>
<path d="M4886 1814 c-4 -14 -5 -28 -3 -31 3 -2 8 8 11 23 4 14 5 28 3 31 -3
2 -8 -8 -11 -23z"/>
<path d="M122 1770 c0 -8 6 -31 13 -50 7 -19 13 -28 13 -20 0 8 -6 31 -13 50
-7 19 -13 28 -13 20z"/>
<path d="M156 1660 c27 -106 159 -371 256 -514 223 -331 415 -523 724 -726
165 -108 502 -276 519 -258 3 3 -28 17 -67 33 -156 60 -399 197 -556 312 -264
195 -521 482 -681 762 -60 104 -171 333 -171 352 -1 8 -7 25 -16 39 l-15 25 7
-25z"/>
<path d="M4802 1575 c-17 -37 -14 -45 4 -12 9 16 14 31 11 33 -2 2 -9 -7 -15
-21z"/>
<path d="M4776 1515 c-9 -26 -7 -32 5 -12 6 10 9 21 6 23 -2 3 -7 -2 -11 -11z"/>
<path d="M4691 1337 c-65 -121 -176 -289 -263 -395 -92 -112 -268 -285 -384
-377 -55 -44 -114 -90 -130 -103 l-29 -24 30 18 c152 88 470 399 611 597 83
117 232 372 223 382 -2 2 -28 -42 -58 -98z"/>
<path d="M3824 404 c-18 -14 -18 -15 4 -4 12 6 22 13 22 15 0 8 -5 6 -26 -11z"/>
<path d="M3767 371 c-41 -26 -46 -36 -10 -17 17 9 35 20 38 26 8 13 6 12 -28
-9z"/>
<path d="M3674 314 c-18 -14 -18 -15 4 -4 12 6 22 13 22 15 0 8 -5 6 -26 -11z"/>
<path d="M3505 230 c-3 -6 1 -7 9 -4 18 7 21 14 7 14 -6 0 -13 -4 -16 -10z"/>
<path d="M3435 201 c-22 -11 -37 -20 -34 -20 10 -1 79 29 79 34 0 7 0 7 -45
-14z"/>
<path d="M1765 120 c11 -5 27 -9 35 -9 9 0 8 4 -5 9 -11 5 -27 9 -35 9 -9 0
-8 -4 5 -9z"/>
<path d="M1948 73 c7 -3 16 -2 19 1 4 3 -2 6 -13 5 -11 0 -14 -3 -6 -6z"/>
<path d="M1998 63 c7 -3 16 -2 19 1 4 3 -2 6 -13 5 -11 0 -14 -3 -6 -6z"/>
<path d="M2108 43 c7 -3 16 -2 19 1 4 3 -2 6 -13 5 -11 0 -14 -3 -6 -6z"/>
<path d="M2258 23 c6 -2 18 -2 25 0 6 3 1 5 -13 5 -14 0 -19 -2 -12 -5z"/>
</g>
</svg>
