<svg width="75" height="75" viewBox="0 0 75 75" fill="none" xmlns="http://www.w3.org/2000/svg">
<path d="M69.1377 23.9017H66.8392V19.1703C66.8392 17.2969 65.2758 15.7717 63.3555 15.7717L32.1439 15.7691C30.2236 15.7691 28.6602 17.2943 28.6602 19.1677V23.8991H26.3618C25.1979 23.8991 24.2497 24.8241 24.2497 25.9596V38.5689C24.2497 39.7043 25.1978 40.6294 26.3618 40.6294H28.6602V51.5159C28.6602 58.4276 34.4237 64.0475 41.5057 64.0475H53.9911C61.0759 64.0475 66.8366 58.4248 66.8366 51.5159L66.8393 40.6294H69.1377C70.3016 40.6294 71.2498 39.7044 71.2498 38.5689V25.9622C71.2498 24.8268 70.3016 23.9017 69.1377 23.9017ZM28.6602 39.187H26.3617C26.0128 39.187 25.7278 38.9116 25.7278 38.5686V25.9619C25.7278 25.6215 26.0101 25.3435 26.3617 25.3435H28.6602V39.187ZM65.3611 51.5183C65.3611 57.6346 60.2607 62.6077 53.9938 62.6077H41.5056C35.2361 62.6077 30.1383 57.6321 30.1383 51.5183V19.1671C30.1383 18.0889 31.0386 17.2107 32.1438 17.2107H63.3527C64.458 17.2107 65.3582 18.0889 65.3582 19.1671L65.3611 51.5183ZM69.7716 38.571C69.7716 38.9114 69.4866 39.1894 69.1377 39.1894H66.8393V25.3436H69.1377C69.4866 25.3436 69.7716 25.6216 69.7716 25.9619V38.571ZM62.2477 23.901H33.2493C32.8418 23.901 32.509 24.2232 32.509 24.6233V35.1335C32.509 38.1656 35.0365 40.6314 38.1446 40.6314H57.35C60.4582 40.6314 62.9857 38.1656 62.9857 35.1335L62.9883 24.6207C62.9883 24.2231 62.6579 23.901 62.2477 23.901ZM37.5503 39.1397C35.5394 38.8565 33.9893 37.1677 33.9893 35.1307V25.3402H42.1977L36.4955 30.9031C36.2078 31.1837 36.2078 31.6411 36.4955 31.9216C36.7831 32.2022 37.2519 32.2022 37.5395 31.9216L44.2884 25.3376H51.695L37.5503 39.1397ZM61.51 35.1307C61.51 37.3678 59.6457 39.1866 57.3525 39.1866H53.3628L57.8478 34.8111C58.1355 34.5305 58.1355 34.0732 57.8478 33.7926C57.5602 33.512 57.0914 33.512 56.8038 33.7926L51.2747 39.1866H39.5931L53.7858 25.3434H61.5095L61.51 35.1307ZM20.6725 8.24376C20.4595 8.0359 20.1345 7.97615 19.8602 8.09047L16.1155 9.65205C16.0276 9.68843 15.9504 9.74039 15.8838 9.80535L12.7091 12.9024C12.4215 13.1831 12.4215 13.6404 12.7091 13.9209L13.0927 14.2951L8.33057 18.946C8.19208 19.0811 8.11484 19.2656 8.11484 19.4552V29.7911C6.40497 29.9158 5.04666 31.2955 5.04666 32.9895V52.5205C4.3302 52.5361 3.74963 53.1077 3.74963 53.8144V55.6228C3.74963 56.3373 4.34622 56.9194 5.07863 56.9194L6.15993 56.9168V60.4036C6.15993 60.8012 6.49019 61.1259 6.90032 61.1259H7.33977V71.062C7.33977 71.4595 7.67003 71.7843 8.08015 71.7843H11.8968C12.3043 71.7843 12.6372 71.4621 12.6372 71.062L12.6318 61.1259H13.0713C13.4788 61.1259 13.8117 60.8037 13.8117 60.4036V56.9168H14.893C15.6254 56.9168 16.222 56.3347 16.222 55.6202V53.8118C16.222 53.1077 15.6414 52.5334 14.9223 52.5179V44.2733H17.6922C19.9134 44.3175 20.9787 41.1762 19.5032 39.5782L18.1636 38.014V35.8159H19.3461C20.3076 35.8159 21.0906 35.052 21.0906 34.114V31.4742C21.0906 30.5362 20.3076 29.7723 19.3461 29.7723L12.4318 29.7697V20.9045L16.1418 17.2774C16.5067 17.6957 17.0101 18.0646 17.5188 17.6022L20.6935 14.5051C20.76 14.4401 20.8133 14.3648 20.8506 14.279L22.4593 10.6181C22.5791 10.3478 22.5152 10.0309 22.3021 9.82301L20.6725 8.24376ZM11.1537 70.342H8.81789V61.1262H11.1563L11.1537 70.342ZM12.3336 59.6842H7.63808V56.917H12.3336V59.6842ZM14.7439 55.475H5.22778V53.9577H14.7439V55.475ZM18.3714 40.5037C19.0399 41.1767 18.6537 42.8499 17.6949 42.8318H14.925V35.8137H16.6908V38.2742C16.6908 38.4431 16.752 38.6068 16.8612 38.7367L18.3714 40.5037ZM19.3488 31.2122C19.4953 31.2122 19.6152 31.3291 19.6152 31.472V34.1119C19.6152 34.2548 19.4953 34.3717 19.3488 34.3717H14.182C13.7745 34.3717 13.4416 34.6939 13.4416 35.094V43.5514V52.5157L6.52453 52.5131V32.9948C6.52453 32.0126 7.34749 31.2124 8.35692 31.2124L19.3488 31.2122ZM11.1698 20.0968C11.0313 20.2319 10.954 20.4137 10.954 20.606V29.7699H9.59305V19.7586L14.1368 15.3182L14.9943 16.1574L15.0982 16.2587L11.1698 20.0968ZM19.5486 13.5855L16.9971 16.0746C16.4671 15.5576 14.8079 13.9284 14.2778 13.414L16.8293 10.9249L19.9854 9.61013L20.9016 10.5013L19.5486 13.5855Z" fill="#00F5B0" fill-opacity="0.7"/>
</svg>
