<svg width="32" height="32" viewBox="0 0 32 32" fill="none" xmlns="http://www.w3.org/2000/svg">
<path d="M27.7963 9.83337C27.7781 9.61973 27.3088 9.20944 27.1102 9.13626C26.9111 9.06263 26.6882 9.11275 26.5384 9.26412L23.5336 12.3169L19.6306 8.35165L22.6956 5.24949C22.8456 5.09783 22.8945 4.87218 22.8222 4.67099C22.7492 4.4694 22.268 4.04234 22.0565 4.02383C20.1951 3.86151 18.3713 4.53415 17.0527 5.86899C15.2468 7.69704 14.7685 10.3665 15.6154 12.6419C15.5228 12.7208 15.4315 12.8045 15.3414 12.8947L5.11071 22.6657C5.1071 22.6693 5.10355 22.6732 5.09964 22.6767C3.89647 23.8945 3.89647 25.876 5.09964 27.0941C6.30301 28.3118 8.24641 28.297 9.44938 27.0792C9.45457 27.0743 9.45931 27.0694 9.46405 27.0639L19.0336 16.6283C19.1209 16.5396 19.2019 16.4468 19.2782 16.3516C21.5269 17.2103 24.166 16.7274 25.9736 14.8981C27.2919 13.5632 27.9569 11.7171 27.7963 9.83337Z" stroke="#00F5B0" stroke-opacity="0.6" stroke-width="2" stroke-linejoin="round"/>
</svg>
