<svg width="12" height="12" viewBox="0 0 18 16" fill="none" xmlns="http://www.w3.org/2000/svg">
<path d="M15.6706 2.45805C15.5774 2.23558 15.3321 2.1348 15.1232 2.23331C15.0781 2.25448 15.0395 2.28446 15.0056 2.31872C15.0027 2.32149 15.0006 2.32175 14.9975 2.32477L13.0959 4.34514C12.6286 4.84148 12.5032 4.97476 11.9109 4.34514C11.626 4.0423 11.4837 3.7906 11.5105 3.63641C11.5366 3.48373 11.7179 3.29124 11.9109 3.08591L13.8123 1.06528C13.8168 1.06049 13.818 1.05646 13.8221 1.05193C13.8524 1.01716 13.8794 0.977855 13.8984 0.932C13.9911 0.709278 13.8963 0.449015 13.6869 0.350252C12.2255 -0.337315 10.4853 0.00760211 9.35587 1.20763C8.29515 2.3346 7.94403 4.03323 8.43978 5.52149L0.428934 13.7678C0.115746 14.1003 -0.0376478 14.5964 0.00787237 15.1288C0.0495992 15.6166 0.249936 16.0834 0.557434 16.4104C0.902155 16.7768 1.42682 17 1.9413 17C2.34813 17 2.7488 16.8604 3.04919 16.5415L10.7898 8.02812C12.1942 8.56326 13.7976 8.19189 14.8629 7.06014C15.9928 5.86036 16.3174 4.01081 15.6706 2.45805ZM14.2766 6.43682C13.383 7.38641 12.0081 7.65574 10.8554 7.10624C10.6961 7.03066 10.5088 7.06845 10.3872 7.20224L2.4579 15.9237C2.13855 16.2625 1.46902 16.132 1.14445 15.7874C0.974465 15.6067 0.858531 15.3308 0.834585 15.0494C0.811351 14.7786 0.877498 14.5387 1.01145 14.3964L9.21694 5.9498C9.34164 5.82131 9.37816 5.62353 9.3075 5.45447C8.79825 4.23252 9.05359 2.77651 9.94313 1.83146C10.6802 1.04815 11.7478 0.729686 12.7462 0.951652L11.3234 2.46359C11.0501 2.75409 10.7672 3.05441 10.6944 3.47769C10.5873 4.1 11.0029 4.62682 11.3246 4.96872C11.8014 5.47538 12.2011 5.65376 12.5394 5.65376C13.0383 5.65376 13.4034 5.26601 13.6829 4.96872L15.1045 3.45803C15.3133 4.51949 15.0139 5.65376 14.2766 6.43682Z" fill="#00F5B0" fill-opacity="0.7"/>
</svg>
